<mxfile host="app.diagrams.net" agent="Mozilla/5.0 (Windows NT 10.0; Win64; x64) AppleWebKit/537.36 (KHTML, like Gecko) Chrome/133.0.0.0 Safari/537.36 Edg/133.0.0.0" version="26.1.1">
  <diagram name="Page-1" id="j9UJLBTEp7QFnVzvcQB1">
    <mxGraphModel dx="891" dy="467" grid="1" gridSize="10" guides="1" tooltips="1" connect="1" arrows="1" fold="1" page="1" pageScale="1" pageWidth="827" pageHeight="1169" math="0" shadow="0">
      <root>
        <mxCell id="0" />
        <mxCell id="1" parent="0" />
        <mxCell id="WTNl2_h7xstlQwhdNxEX-2" value="&lt;div style=&quot;line-height: 90%;&quot;&gt;&lt;b&gt;&lt;u&gt;&lt;font style=&quot;line-height: 90%; font-size: 7px;&quot;&gt;Information&lt;/font&gt;&lt;/u&gt;&lt;/b&gt;&lt;div&gt;&lt;ul&gt;&lt;li style=&quot;text-align: left;&quot;&gt;&lt;font style=&quot;line-height: 90%; font-size: 7px;&quot;&gt;Gender&lt;/font&gt;&lt;/li&gt;&lt;li style=&quot;text-align: left;&quot;&gt;&lt;font style=&quot;line-height: 90%; font-size: 7px;&quot;&gt;Age&lt;/font&gt;&lt;/li&gt;&lt;/ul&gt;&lt;div&gt;&lt;b&gt;&lt;u&gt;&lt;font style=&quot;line-height: 90%; font-size: 7px;&quot;&gt;Habits&lt;/font&gt;&lt;/u&gt;&lt;/b&gt;&lt;/div&gt;&lt;/div&gt;&lt;div&gt;&lt;ul&gt;&lt;li style=&quot;text-align: left;&quot;&gt;&lt;font style=&quot;line-height: 90%; font-size: 7px;&quot;&gt;Alcohol Consuming&lt;/font&gt;&lt;/li&gt;&lt;li style=&quot;text-align: left;&quot;&gt;&lt;font style=&quot;line-height: 90%; font-size: 7px;&quot;&gt;Smoking&lt;/font&gt;&lt;/li&gt;&lt;/ul&gt;&lt;div&gt;&lt;font style=&quot;line-height: 90%; font-size: 7px;&quot;&gt;&lt;b&gt;&lt;u&gt;Feels&lt;/u&gt;&lt;/b&gt;&lt;/font&gt;&lt;/div&gt;&lt;/div&gt;&lt;div style=&quot;&quot;&gt;&lt;ul&gt;&lt;li&gt;&lt;font style=&quot;line-height: 90%; font-size: 7px;&quot;&gt;Yellow Fingers&lt;/font&gt;&lt;/li&gt;&lt;li&gt;&lt;font style=&quot;line-height: 90%; font-size: 7px;&quot;&gt;Anxiety&lt;/font&gt;&lt;/li&gt;&lt;li&gt;&lt;font style=&quot;line-height: 90%; font-size: 7px;&quot;&gt;PEER_PRESSURE&lt;/font&gt;&lt;/li&gt;&lt;li&gt;&lt;font style=&quot;line-height: 90%; font-size: 7px;&quot;&gt;FATIGUE&lt;/font&gt;&lt;/li&gt;&lt;li&gt;&lt;font style=&quot;line-height: 90%; font-size: 7px;&quot;&gt;WHEEZING&lt;/font&gt;&lt;/li&gt;&lt;li&gt;&lt;font style=&quot;line-height: 90%; font-size: 7px;&quot;&gt;COUGHING&lt;/font&gt;&lt;/li&gt;&lt;li&gt;&lt;font style=&quot;line-height: 90%; font-size: 7px;&quot;&gt;SHORTNESS OF BREATH&lt;/font&gt;&lt;/li&gt;&lt;li&gt;&lt;font style=&quot;line-height: 90%; font-size: 7px;&quot;&gt;SWALLOWING DIFFICULTY&lt;/font&gt;&lt;/li&gt;&lt;li&gt;&lt;span style=&quot;font-size: 7px;&quot;&gt;CHEST PAIN&lt;/span&gt;&lt;/li&gt;&lt;/ul&gt;&lt;div&gt;&lt;span style=&quot;font-size: 7px;&quot;&gt;&lt;b&gt;&lt;u&gt;Target&lt;/u&gt;&lt;/b&gt;&lt;/span&gt;&lt;/div&gt;&lt;div style=&quot;text-align: left;&quot;&gt;&lt;ul&gt;&lt;li&gt;&lt;span style=&quot;font-size: 7px;&quot;&gt;LUNG_CANCER&lt;/span&gt;&lt;/li&gt;&lt;/ul&gt;&lt;/div&gt;&lt;/div&gt;&lt;/div&gt;" style="rounded=1;whiteSpace=wrap;html=1;fillColor=#FFFFCC;" vertex="1" parent="1">
          <mxGeometry x="70" y="150" width="140" height="300" as="geometry" />
        </mxCell>
        <mxCell id="WTNl2_h7xstlQwhdNxEX-3" value="" style="shape=flexArrow;endArrow=classic;html=1;rounded=0;exitX=1;exitY=0.5;exitDx=0;exitDy=0;fillColor=#B3B3B3;" edge="1" parent="1" source="WTNl2_h7xstlQwhdNxEX-2" target="WTNl2_h7xstlQwhdNxEX-4">
          <mxGeometry width="50" height="50" relative="1" as="geometry">
            <mxPoint x="360" y="330" as="sourcePoint" />
            <mxPoint x="280" y="300" as="targetPoint" />
          </mxGeometry>
        </mxCell>
        <mxCell id="WTNl2_h7xstlQwhdNxEX-4" value="Traing and Testing Dataset" style="rounded=1;whiteSpace=wrap;html=1;fillColor=#99CCFF;" vertex="1" parent="1">
          <mxGeometry x="310" y="285" width="170" height="30" as="geometry" />
        </mxCell>
        <mxCell id="WTNl2_h7xstlQwhdNxEX-5" value="" style="shape=flexArrow;endArrow=classic;html=1;rounded=0;exitX=1;exitY=0.5;exitDx=0;exitDy=0;fillColor=#B3B3B3;entryX=0;entryY=0.5;entryDx=0;entryDy=0;" edge="1" parent="1" source="WTNl2_h7xstlQwhdNxEX-4" target="WTNl2_h7xstlQwhdNxEX-6">
          <mxGeometry width="50" height="50" relative="1" as="geometry">
            <mxPoint x="480" y="299.69" as="sourcePoint" />
            <mxPoint x="580" y="299.69" as="targetPoint" />
          </mxGeometry>
        </mxCell>
        <mxCell id="WTNl2_h7xstlQwhdNxEX-6" value="&lt;div style=&quot;line-height: 90%;&quot;&gt;&lt;font style=&quot;font-size: 10px;&quot;&gt;Mean Squared Error&lt;/font&gt;&lt;/div&gt;&lt;div style=&quot;line-height: 90%;&quot;&gt;&lt;font style=&quot;font-size: 10px;&quot;&gt;&lt;br&gt;&lt;/font&gt;&lt;/div&gt;&lt;div style=&quot;line-height: 90%;&quot;&gt;&lt;font style=&quot;font-size: 10px;&quot;&gt;Root Mean Squared Error&lt;/font&gt;&lt;/div&gt;&lt;div style=&quot;line-height: 90%;&quot;&gt;&lt;font style=&quot;font-size: 10px;&quot;&gt;&lt;br&gt;&lt;/font&gt;&lt;/div&gt;&lt;div style=&quot;line-height: 90%;&quot;&gt;&lt;font style=&quot;font-size: 10px;&quot;&gt;R-Squared Score&lt;/font&gt;&lt;/div&gt;&lt;div style=&quot;line-height: 90%;&quot;&gt;&lt;br&gt;&lt;/div&gt;&lt;div style=&quot;line-height: 90%;&quot;&gt;&lt;span style=&quot;font-size: 10px;&quot;&gt;Plot Tree for&lt;/span&gt;&lt;/div&gt;&lt;div style=&quot;line-height: 90%;&quot;&gt;&lt;span style=&quot;font-size: 10px;&quot;&gt;Decision Tree Classifier&lt;/span&gt;&lt;/div&gt;&lt;div style=&quot;line-height: 90%;&quot;&gt;&lt;span style=&quot;font-size: 10px;&quot;&gt;and&lt;/span&gt;&lt;/div&gt;&lt;div style=&quot;line-height: 90%;&quot;&gt;&lt;span style=&quot;font-size: 10px;&quot;&gt;Random Forest Classifier&lt;/span&gt;&lt;/div&gt;" style="rounded=1;whiteSpace=wrap;html=1;fillColor=#FFFFCC;" vertex="1" parent="1">
          <mxGeometry x="580" y="150" width="140" height="300" as="geometry" />
        </mxCell>
        <mxCell id="WTNl2_h7xstlQwhdNxEX-7" value="&lt;b&gt;Input&lt;/b&gt;" style="text;html=1;align=center;verticalAlign=middle;resizable=0;points=[];autosize=1;strokeColor=none;fillColor=none;" vertex="1" parent="1">
          <mxGeometry x="113" y="123" width="50" height="30" as="geometry" />
        </mxCell>
        <mxCell id="WTNl2_h7xstlQwhdNxEX-8" value="&lt;b&gt;Output&lt;/b&gt;" style="text;html=1;align=center;verticalAlign=middle;resizable=0;points=[];autosize=1;strokeColor=none;fillColor=none;" vertex="1" parent="1">
          <mxGeometry x="616" y="120" width="60" height="30" as="geometry" />
        </mxCell>
      </root>
    </mxGraphModel>
  </diagram>
</mxfile>
